<svg xmlns="http://www.w3.org/2000/svg" viewBox="0 0 64 64">
  <!-- Ink-void background -->
  <rect width="64" height="64" rx="10" fill="#07070A"/>
  <!-- Logs: two crossing pieces, ember-blood tones -->
  <rect x="15" y="47" width="34" height="6" rx="3" fill="#3D1505" transform="rotate(-18 32 50)"/>
  <rect x="15" y="47" width="34" height="6" rx="3" fill="#3D1505" transform="rotate(18 32 50)"/>
  <!-- Ember glow beneath flame -->
  <ellipse cx="32" cy="50" rx="11" ry="3.5" fill="#8B1A1A" opacity="0.55"/>
  <!-- Outer flame shadow -->
  <path d="M32 9 C38 16 46 22 44 33 C42 41 38 47 32 50 C26 47 22 41 20 33 C18 22 26 16 32 9Z" fill="#4A1E06"/>
  <!-- Main flame body (gilt amber) -->
  <path d="M32 13 C37 20 43 25 41 34 C39 42 36 46 32 49 C28 46 25 42 23 34 C21 25 27 20 32 13Z" fill="#B8935A"/>
  <!-- Inner flame (brighter gilt) -->
  <path d="M32 19 C36 25 39 30 37 37 C35.5 42 34 45 32 48 C30 45 28.5 42 27 37 C25 30 28 25 32 19Z" fill="#D4A96A"/>
  <!-- Bright core -->
  <path d="M32 27 C34.5 31 35.5 36 34.5 40 C33.5 43.5 32.8 45.5 32 47 C31.2 45.5 30.5 43.5 29.5 40 C28.5 36 29.5 31 32 27Z" fill="#F0D090" opacity="0.85"/>
  <!-- Ember sparks -->
  <circle cx="25" cy="27" r="1.4" fill="#8B1A1A" opacity="0.7"/>
  <circle cx="39" cy="23" r="1.1" fill="#8B1A1A" opacity="0.5"/>
  <circle cx="22" cy="19" r="0.9" fill="#B8935A" opacity="0.45"/>
  <circle cx="42" cy="30" r="0.8" fill="#B8935A" opacity="0.4"/>
</svg>